<?xml version="1.0" encoding="UTF-8"?><svg id="Layer_1" xmlns="http://www.w3.org/2000/svg" viewBox="0 0 798.3 136.7"><path d="M83.6,95h-22.8v-31.6c0-2.4-.3-4.1-.8-5-.5-1-1.5-1.4-2.9-1.4-2.6,0-3.8,2.2-3.8,6.5v31.6h-22.8v-31.6c0-2.4-.3-4.1-.8-5-.6-1-1.5-1.4-2.9-1.4-2.5,0-3.8,2.2-3.8,6.5v31.6H0v-36.1c0-6.6,2.3-12.2,6.9-16.8s10.2-6.9,16.7-6.9,12.8,2.8,18.2,8.2c6-5.5,12-8.2,18-8.2s13.7,2.7,18.3,8c3.6,4.2,5.4,10.2,5.4,18.2v33.6h0ZM129,15.2h22.8v48.8c0,9-2.4,16.3-7.3,21.9-2.8,3.2-6.4,5.8-10.7,7.8-4.3,1.9-8.8,2.9-13.3,2.9-9.1,0-16.7-2.9-23-8.8-6.2-5.9-9.3-13.1-9.3-21.6s3.1-15.4,9.3-21.4c6.2-6,13.5-9,22-9s3.4.1,6.1.4v24.2c-1.9-1.4-3.8-2.1-5.6-2.1s-4.4.8-6.1,2.5c-1.7,1.7-2.5,3.7-2.5,6s.9,4.2,2.6,5.8c1.8,1.6,3.8,2.4,6.3,2.4,5.8,0,8.8-3.9,8.8-11.7V15.2h0ZM181.7,36.4v58.6h-22.8v-58.6h22.8ZM179,13.7c-2.2-2.1-4.9-3.2-8-3.2s-5.8,1-8,3.2c-2.2,2.1-3.4,4.6-3.4,7.4s.1,2,.4,2.8c.2.6.4,1.2.6,1.7.5,1.1,1.3,2.1,2.2,3,2.1,2,4.9,3,8.2,3,5,0,6.1-1,8.2-3,1-.9,1.8-1.9,2.3-3.1,0-.2.2-.4.2-.5.5-1.2.7-2.5.7-3.9,0-2.9-1.1-5.4-3.4-7.4M185.9,15.4c-1.2-3.4-3.4-5.9-6.6-7.6-3.2-1.7-6.6-2.2-10-1.3-3.2.8-5.7,2.5-7.2,5.1h0c-.1.2-.2.4-.3.5v.2c1.4-2.5,3.7-4.1,7-4.8,3.4-.7,6.7-.2,9.9,1.5,3.2,1.7,5.5,4.2,6.8,7.4s1.2,5.7,0,8.2c1.5-2.8,1.6-5.9.4-9.2M190.5,13.3c-1.5-4.1-4.2-7.2-8.2-9.4s-8.1-2.6-12.3-1.6c-4,1-7,3-8.9,6.2h0c-.1.2-.2.4-.4.6v.2c1.6-3.1,4.5-5,8.6-5.8,4.2-.8,8.2-.2,12.2,2s6.8,5.1,8.4,9c1.5,3.6,1.6,7,.2,10.1,1.8-3.5,2-7.2.5-11.3" fill="#3636e0"/><g isolation="isolate"><text transform="translate(202.2 95) scale(.3 1)" fill="#282828" font-family="Arial-BoldMT, Arial" font-size="110.8" font-weight="700" isolation="isolate"><tspan x="0" y="0" letter-spacing="0em">MOIMS</tspan><tspan x="368.7" y="0" letter-spacing="0em">T</tspan><tspan x="433" y="0" letter-spacing="0em">ONE DASAN INDONESI</tspan><tspan x="1639.8" y="0" letter-spacing="0em">A</tspan></text></g></svg>